<svg id="Ebene_1" data-name="Ebene 1" xmlns="http://www.w3.org/2000/svg" viewBox="0 0 100 100"><defs><style>.cls-1{fill:#1d1d1b;}</style></defs><path class="cls-1" d="M56,65.79a2.82,2.82,0,0,0,.05-.59v-.1a3.5,3.5,0,0,0-.09-.69c-.28-1.08-1.15-1.64-2.59-1.64H51v4.81h2.38C54.89,67.58,55.79,67,56,65.79Z"/><path class="cls-1" d="M53.68,71.35H51v5.86h2.68c2.3,0,3.43-1,3.43-2.93A3.52,3.52,0,0,0,56.9,73C56.48,71.91,55.41,71.35,53.68,71.35ZM53.6,74h.08a2.81,2.81,0,0,1,.82.09,1.42,1.42,0,0,1,0,.23,1.56,1.56,0,0,1,0,.24,3.23,3.23,0,0,1-.82.09H53.6Z"/><path class="cls-1" d="M81.65,70c0-4.4-2.24-6.42-7.19-6.42H72.3V76.42h2.16C79.41,76.42,81.65,74.4,81.65,70Zm-6.74,3.8V66.19C78.41,66.28,79,67.51,79,70S78.41,73.71,74.91,73.8Z"/><path class="cls-1" d="M92.19,78V70.22H90.3V70c0-6.59-4-13.6-15.37-13.6H63.75V61l-.47-.39A7.27,7.27,0,0,0,60,57.46c.41-.29.8-.61,1.17-.93a30.5,30.5,0,0,0,7.72-9.33,28.41,28.41,0,0,0,3.18-11.37,37,37,0,0,1-5.33,10,32.08,32.08,0,0,1-8,7.44,40.27,40.27,0,0,1-5.68,3.13H49.25L66.93,40h0L43.82,56.4h-.36a23.73,23.73,0,0,1,1.48-2.71,35.4,35.4,0,0,1,7-8.12,41,41,0,0,1,4.49-3.15A19.67,19.67,0,0,1,58.78,41l2.52-1.24a22,22,0,0,1,2.59-1.12c.89-.33,1.77-.67,2.67-1,1.81-.59,3.66-1.11,5.51-1.76-1.93.07-3.89.17-5.85.35-1,.16-1.92.36-2.9.54a19.43,19.43,0,0,0-2.89.65,38.21,38.21,0,0,0-11,5c-.26.17-.5.35-.75.54a35.58,35.58,0,0,0,1-9.86,35.74,35.74,0,0,0-4.13-15.49A45.74,45.74,0,0,0,36,5.18,58.09,58.09,0,0,1,43.3,18.56a34.19,34.19,0,0,1,1.93,7.16A33.66,33.66,0,0,1,45.71,33a37.58,37.58,0,0,1-3.47,14,46.22,46.22,0,0,1-3.56,6.37c-.26.4-.53.79-.82,1.18L36,13.73,34.19,54.54c-.27-.38-.54-.77-.8-1.16A46.75,46.75,0,0,1,29.84,47a37.43,37.43,0,0,1-3.47-14,33.65,33.65,0,0,1,.47-7.29,35.6,35.6,0,0,1,1.92-7.16A60.08,60.08,0,0,1,36,5.18a45.55,45.55,0,0,0-9.59,12.34A35.74,35.74,0,0,0,22.31,33a36.27,36.27,0,0,0,1,9.84c-.23-.18-.48-.35-.72-.52a38.73,38.73,0,0,0-11-5,20.77,20.77,0,0,0-2.89-.65c-1-.18-1.94-.38-2.91-.52C3.89,36,1.93,35.91,0,35.83c1.85.64,3.7,1.17,5.52,1.76.88.38,1.77.7,2.65,1a19.84,19.84,0,0,1,2.59,1.12L13.29,41a22.11,22.11,0,0,1,2.39,1.42,42.5,42.5,0,0,1,4.48,3.16,35,35,0,0,1,7,8.12,22.43,22.43,0,0,1,1.57,2.94.19.19,0,0,0-.1,0L5.14,40h0l18,16.7L25,58.43l-.22.14c-.56-.18-1.12-.36-1.66-.55-1.31-.44-2.58-.93-3.83-1.49h0a43.47,43.47,0,0,1-6-3.26,32.41,32.41,0,0,1-8-7.44A37,37,0,0,1,0,35.83,28.09,28.09,0,0,0,3.18,47.2a30.58,30.58,0,0,0,7.7,9.33c.64.54,1.32,1,2,1.53l-.34.13c-.65.35-1.28.72-1.92,1.1l-.93.57-.84.68c-.56.46-1.12.91-1.66,1.38A39.4,39.4,0,0,0,4.41,65.1c1.27-.65,2.41-1.39,3.61-2,.64-.26,1.23-.55,1.83-.82l.9-.41.95-.28L13.54,61l1.87-.31a8.6,8.6,0,0,1,1.51-.11c1.35.71,2.75,1.36,4.15,1.93a12.71,12.71,0,0,0-.8,1.5L8.93,65.1l10.58,1A14.13,14.13,0,0,0,19,69.6a7.36,7.36,0,0,1-.82.06l-.91,0a10.59,10.59,0,0,1-1.86-.14l-1.86-.3-1.85-.57-.94-.27-.91-.42c-.6-.27-1.19-.56-1.83-.82-1.2-.63-2.34-1.35-3.61-2a41.33,41.33,0,0,0,2.77,3.19c.54.47,1.1.91,1.66,1.38l.84.68.93.57a17.76,17.76,0,0,0,8.5,2.76,2,2,0,0,0,.35,0c1.57,6.1,7.07,10.37,14,10.37a15.71,15.71,0,0,0,9-2.54V83.6H55.17c4.29,0,7-1.48,8.58-3.57V83.6H75.4V87h7.81v7.81h9V87H100V78Zm5.21,6.38H89.59v7.81H85.81V84.41H78V80.63h7.81V72.82h3.78v7.81H97.4ZM55.17,81H45.06V59h9.75a9.83,9.83,0,0,1,2.55.29A5.28,5.28,0,0,1,61,61.76a5.79,5.79,0,0,1,.76,3,7.43,7.43,0,0,0,0,.35.81.81,0,0,1,0,.15,5.65,5.65,0,0,1-2.1,3.62h0a1.5,1.5,0,0,1-.25.19,5.78,5.78,0,0,1,2.29,1.76,6,6,0,0,1,1.28,3.71C62.88,78.09,60.71,81,55.17,81Zm-14-1.73a13.27,13.27,0,0,1-7.73,2.2c-5.2,0-9.8-2.91-11.33-7.85A12.66,12.66,0,0,1,21.59,70c0-.27,0-.53,0-.8a11.63,11.63,0,0,1,.49-2.83c.13-.43.3-.86.47-1.27a9.07,9.07,0,0,1,.76-1.37c.06-.11.13-.21.19-.3A11.4,11.4,0,0,1,24.69,62c.22-.22.46-.43.69-.63A10.41,10.41,0,0,1,27,60.25a7.75,7.75,0,0,1,1.44-.72,5.11,5.11,0,0,1,.48-.22h0c.27-.1.54-.18.82-.26l.11,0a8.15,8.15,0,0,1,1.09-.24,2.93,2.93,0,0,1,.53-.09,4.7,4.7,0,0,1,.85-.11,10.56,10.56,0,0,1,1.13,0,5.33,5.33,0,0,1,.57,0,4,4,0,0,1,.6,0,3.15,3.15,0,0,1,.43,0,8.11,8.11,0,0,1,1,.12,9.12,9.12,0,0,1,.91.17,2,2,0,0,1,.26.06,8.6,8.6,0,0,1,.87.24,10.45,10.45,0,0,1,1.19.44.43.43,0,0,1,.13,0,4.31,4.31,0,0,1,.74.38.37.37,0,0,1,.15.08l.06,0a7,7,0,0,1,.83.55v.21h0v4.85l-.51-.4a2.47,2.47,0,0,0-.38-.28s-.05,0-.07,0a.55.55,0,0,0-.17-.11,9.89,9.89,0,0,0-1.31-.75l-.2-.09a1.22,1.22,0,0,0-.24-.1h0a6.25,6.25,0,0,0-.6-.24h0c-.22-.07-.45-.15-.68-.2a5.43,5.43,0,0,0-.67-.16.48.48,0,0,0-.2,0H36a.11.11,0,0,0-.09,0l-.3,0a4.43,4.43,0,0,0-.9-.08,1.62,1.62,0,0,0-.31,0,.71.71,0,0,0-.21,0,1,1,0,0,0-.24,0h-.26a8.66,8.66,0,0,0-1.86.4l-.54.24A2.49,2.49,0,0,0,31,64a5.36,5.36,0,0,0-1.31,1,.27.27,0,0,0-.07.08l0,0A6.44,6.44,0,0,0,28.44,67a8,8,0,0,0-.55,3,7.7,7.7,0,0,0,.25,2,6.07,6.07,0,0,0,6.29,4.74,10.47,10.47,0,0,0,6.74-2.56ZM32.1,69.84c.49-.34,1-.69,1.45-1.06l-.13,2.9v.22A2.62,2.62,0,0,0,35,74.15c-.18,0-.35,0-.53,0a3.56,3.56,0,0,1-3.88-3.36C31.08,70.51,31.59,70.18,32.1,69.84Zm6.18,3.24a2.4,2.4,0,0,0,.35-1.4l-.13-2.93A17.46,17.46,0,0,0,40,69.84c.43.3.87.58,1.33.84l-1.82,1.54A7.55,7.55,0,0,1,38.28,73.08Zm25.42-3.8s0,0,0,0v.12S63.71,69.31,63.7,69.28Zm2.65-2.61V59h8.58C84,59,87.7,64,87.7,70v.22H83.21V78H75.4v3a3.7,3.7,0,0,1-.47,0H66.35Z"/></svg>