<svg id="Ebene_1" data-name="Ebene 1" xmlns="http://www.w3.org/2000/svg" viewBox="0 0 100 100"><defs><style>.cls-1{fill:#1d1d1b;}</style></defs><path class="cls-1" d="M100,97.93,96.33,98c-15.45.24-30.89.27-46.33.3l-23.17-.11c-7.71,0-15.44-.06-23.16-.19L0,97.92l.05-3.56.19-13c.06-4.35.09-8.69.2-13l.62-26.06,0-1.26L2,40.28l12.2-10c4-3.33,8.12-6.54,12.14-9.77l12-9.53L50,1.71,27.38,23.42c-3.7,3.53-7.35,7.07-11,10.5L10,39.84l24.31.78c-.28,1.08-.51,2.18-.68,3.27l-27.33.88.55,23.54C7,72.65,7,77,7.1,81.34l.13,9.36,4.92-.06,1.08-29.76,0-1.45,1.35,0,20.1.73h.15l.54,0,0,.64,0,.85h0l-.64,17.68-.66-17.85-18,.66,1,28.37c3.24,0,6.48,0,9.71,0L50,90.44c14.25,0,28.5,0,42.76.26l.13-9.36c.06-4.35.09-8.69.21-13l.58-25-10-9.43c-3.67-3.43-7.32-7-11-10.5L50,1.71,61.73,11l12,9.53c4,3.21,8.09,6.43,12.14,9.77l12.2,10,.86.71,0,1.27.62,26.06c.12,4.34.13,8.68.21,13l.18,13Z"/><path class="cls-1" d="M84.74,42.25l-18.57-.61c.11.4.21.79.29,1.19Z"/><path class="cls-1" d="M44,70.5c.77,1.13,1.59,2.21,2.46,3.27S48,75.59,49,76.52l-.07,5.27,0,4.14a1,1,0,0,0,0,.24,2.61,2.61,0,0,0,5.21-.41l-.31-4.07-.42-5.33c.86-1,1.56-1.9,2.29-2.89S57.19,71.22,57.9,70a45.71,45.71,0,0,0,3.58-7.34A38.58,38.58,0,0,0,64,46.57a34.09,34.09,0,0,0-.43-3.64c-.07-.46-.16-.92-.25-1.38a37.34,37.34,0,0,0-4-10.39,45.9,45.9,0,0,0-10-12.08A59.58,59.58,0,0,1,57,32.27a35.45,35.45,0,0,1,2.17,7.13c.13.68.25,1.36.35,2s.16,1.08.21,1.62a27.71,27.71,0,0,1,.16,3.64,37.45,37.45,0,0,1-3,14.18,49.44,49.44,0,0,1-3.36,6.51,2.84,2.84,0,0,1-.22.34c-.17.29-.36.58-.56.86l-.13-1.68-.38-5L50.78,43.34l-.18-2.19-1-13.47L49.4,41.11l0,2.27L49.15,62l-.07,5v1.69c-.21-.26-.42-.54-.61-.81-.08-.1-.17-.22-.25-.34a46.42,46.42,0,0,1-3.77-6.28,37.51,37.51,0,0,1-3.95-13.93,26.57,26.57,0,0,1-.07-3.68c0-1,.1-1.89.22-2.85q0-.41.09-.81a34.79,34.79,0,0,1,1.7-7.26,59.32,59.32,0,0,1,6.85-13.67A45.77,45.77,0,0,0,40.05,31.8a36.42,36.42,0,0,0-3,8.9,29.34,29.34,0,0,0-.47,3.1,32.46,32.46,0,0,0-.19,3.69A38.64,38.64,0,0,0,40,63.42,46,46,0,0,0,44,70.5Z"/></svg>