<svg id="Ebene_1" data-name="Ebene 1" xmlns="http://www.w3.org/2000/svg" viewBox="0 0 300 300"><defs><style>.cls-1{fill:#1d1d1b;}</style></defs><path class="cls-1" d="M186.06,220.35a9.86,9.86,0,0,0,.17-2v-.26a9.13,9.13,0,0,0-.3-2.29c-.86-3.59-3.76-5.49-8.56-5.49h-7.91v15.95h7.91C182.39,226.23,185.33,224.2,186.06,220.35Z"/><path class="cls-1" d="M178.32,238.82h-8.86v19.45h8.86c7.7,0,11.46-3.28,11.46-9.73a10.87,10.87,0,0,0-.73-4.23C187.66,240.67,184.12,238.82,178.32,238.82Zm-.21,8.64h.21a9.54,9.54,0,0,1,2.77.31c0,.17,0,.43,0,.77s0,.61,0,.78a9.54,9.54,0,0,1-2.77.31h-.21Z"/><path class="cls-1" d="M249,189.09H211.83v15.22l-1.6-1.3v0a24.18,24.18,0,0,0-10.89-10.29c1.34-1,2.63-2,3.93-3.12a100.76,100.76,0,0,0,25.6-31,94.54,94.54,0,0,0,10.59-37.75c-4.58,12.11-10.07,23.53-17.72,33.21a108.26,108.26,0,0,1-26.51,24.73,132.44,132.44,0,0,1-18.85,10.34H163.66l58.68-54.4-76.71,54.4h-1.16a75.68,75.68,0,0,1,4.84-9,115.42,115.42,0,0,1,23.17-27c4.8-3.59,9.52-7.48,14.88-10.47,2.64-1.55,5.1-3.5,8-4.71l8.34-4.11a69.55,69.55,0,0,1,8.65-3.72c2.94-1.16,5.88-2.25,8.82-3.5,6-2,12.15-3.72,18.33-5.84-6.44.22-12.93.57-19.41,1.17-3.24.52-6.44,1.17-9.64,1.77a72.73,72.73,0,0,0-9.65,2.12,129.26,129.26,0,0,0-36.4,16.48c-.83.56-1.65,1.12-2.43,1.73a117,117,0,0,0,3.38-32.65A119.11,119.11,0,0,0,151.6,60a153.13,153.13,0,0,0-31.87-41c9.86,14.1,18.42,28.84,24.17,44.49a117.74,117.74,0,0,1,6.4,23.79,111.2,111.2,0,0,1,1.56,24.21A123.51,123.51,0,0,1,140.31,158a159.5,159.5,0,0,1-11.76,21.14c-.91,1.34-1.81,2.64-2.72,3.94l-6.1-135.65L113.63,183c-.9-1.29-1.81-2.59-2.68-3.89A156.42,156.42,0,0,1,99.15,158,124.46,124.46,0,0,1,87.6,111.43a111.23,111.23,0,0,1,1.6-24.21,118.4,118.4,0,0,1,6.4-23.79c5.71-15.65,14.32-30.39,24.13-44.49A152.55,152.55,0,0,0,87.86,60a118.6,118.6,0,0,0-13.75,51.46,119.91,119.91,0,0,0,3.46,32.78c-.82-.65-1.64-1.26-2.51-1.82A127.27,127.27,0,0,0,38.7,125.92a71.18,71.18,0,0,0-9.64-2.17c-3.2-.6-6.4-1.25-9.65-1.73-6.48-.64-13-1-19.41-1.21,6.18,2.12,12.32,3.89,18.33,5.84,2.94,1.25,5.88,2.34,8.82,3.5a66.27,66.27,0,0,1,8.65,3.68l8.35,4.11c2.85,1.21,5.32,3.2,8,4.71,5.37,3,10.08,6.87,14.92,10.51a115.29,115.29,0,0,1,23.14,27,77.59,77.59,0,0,1,5.23,9.77.51.51,0,0,0-.26.09l-78-55.31L77,190.21l6,5.62c-.21.18-.47.31-.69.52l-5.58-1.81c-4.28-1.47-8.51-3.12-12.67-5h0a149.43,149.43,0,0,1-19.85-10.81A108.94,108.94,0,0,1,17.73,154C10.12,144.34,4.58,132.92,0,120.81a95.3,95.3,0,0,0,10.55,37.75,100.89,100.89,0,0,0,25.64,31c2.12,1.82,4.37,3.51,6.62,5.11l-1.13.43c-2.16,1.17-4.32,2.38-6.4,3.63l-3.11,1.86-2.81,2.29c-1.82,1.52-3.68,3-5.45,4.59a125.62,125.62,0,0,0-9.25,10.59c4.19-2.16,8-4.63,12-6.7,2.07-.87,4.06-1.82,6.1-2.73l3-1.38,3.16-.91,6.09-1.9,6.23-1a24.71,24.71,0,0,1,5-.39A136,136,0,0,0,70,209.41a42.4,42.4,0,0,0-2.69,5l-37.66,3.63,35.16,3.37A46.09,46.09,0,0,0,63.13,233c-.91.08-1.82.21-2.68.21l-3.07-.08a36.3,36.3,0,0,1-6.14-.48l-6.23-1-6.09-1.95-3.16-.91-3-1.34c-2-.9-4-1.86-6.1-2.72-4-2.08-7.78-4.5-12-6.66a139.59,139.59,0,0,0,9.25,10.59c1.73,1.56,3.59,3,5.45,4.54l2.81,2.3,3.11,1.9c8.13,5.4,18.08,8.39,28.2,9.17a11.24,11.24,0,0,0,1.16,0c5.28,20.32,23.53,34.46,46.44,34.46,11.55,0,22.4-3,30-8.43v6.83h42.29c14.27,0,23.35-5,28.49-11.89v11.89H249c24.69,0,51-11.85,51-45.18S273.67,189.09,249,189.09Zm0,81.72h-28.5V197.74H249c30.09,0,42.37,16.47,42.37,36.54S279.07,270.81,249,270.81Zm-65.64,0H149.7V197.74h32.38a36.39,36.39,0,0,1,8.61.95c5.84,1.43,9.68,4.41,11.85,8.26a19.65,19.65,0,0,1,2.46,9.94,3.94,3.94,0,0,1,0,.69,1.7,1.7,0,0,1-.05.48.91.91,0,0,1,0,.48,18.71,18.71,0,0,1-6.87,12c-.31.26-.61.47-.91.69a18.33,18.33,0,0,1,7.57,5.84,19.72,19.72,0,0,1,4.23,12.32C208.89,261.21,201.72,270.81,183.34,270.81Zm-46.53-5.7c-6.1,4.62-15.74,7.3-25.73,7.3-17.21,0-32.56-9.64-37.62-26.07a41.44,41.44,0,0,1-1.72-12.06c0-.87,0-1.73.08-2.6a41,41,0,0,1,1.64-9.43,42.33,42.33,0,0,1,1.6-4.19,38.44,38.44,0,0,1,2.47-4.58c.22-.35.43-.7.65-1a37.28,37.28,0,0,1,3.89-4.71c.73-.74,1.47-1.43,2.25-2.08a35.66,35.66,0,0,1,5.27-3.8,33.48,33.48,0,0,1,4.8-2.38c.57-.26,1.13-.48,1.69-.69a26.21,26.21,0,0,1,2.68-.87.89.89,0,0,1,.43-.13,36.07,36.07,0,0,1,3.59-.86,12.19,12.19,0,0,1,1.77-.26,21,21,0,0,1,2.77-.35,35.89,35.89,0,0,1,3.76-.17,14.15,14.15,0,0,1,2,.09,14.11,14.11,0,0,1,2,0h0c.52,0,1,.09,1.43.17a29.38,29.38,0,0,1,3.28.39c1,.13,2,.35,3,.56a7.37,7.37,0,0,1,.9.22,23.48,23.48,0,0,1,2.9.82,30.07,30.07,0,0,1,3.89,1.43,1.7,1.7,0,0,1,.48.17,21.86,21.86,0,0,1,2.46,1.26,1.34,1.34,0,0,1,.52.26.33.33,0,0,1,.17.08,24.1,24.1,0,0,1,2.77,1.82v16.82c-.56-.48-1.12-.95-1.73-1.39a13.18,13.18,0,0,0-1.21-.86.77.77,0,0,0-.26-.17,2.69,2.69,0,0,0-.6-.39,27.1,27.1,0,0,0-4.33-2.47,4.22,4.22,0,0,0-.65-.3c-.26-.13-.51-.22-.77-.35a15.58,15.58,0,0,0-2-.77,21,21,0,0,0-2.29-.7,22.13,22.13,0,0,0-2.25-.51h0a.87.87,0,0,0-.56-.09.51.51,0,0,0-.35-.09.51.51,0,0,0-.34,0,3.23,3.23,0,0,0-.91-.13,17,17,0,0,0-3-.26h0a9.31,9.31,0,0,0-1.08,0,2.93,2.93,0,0,0-.61,0h0a5.6,5.6,0,0,0-.82,0,2.42,2.42,0,0,0-.56,0h-.26a24.17,24.17,0,0,0-6.23,1.39A12.61,12.61,0,0,0,104,214a5.46,5.46,0,0,0-.82.47,17.43,17.43,0,0,0-4.37,3.2,1.2,1.2,0,0,0-.21.26c-.09,0-.09.09-.13.13a11.13,11.13,0,0,0-1.34,1.56,20.2,20.2,0,0,0-2.64,4.67,27.17,27.17,0,0,0-1.77,10,27.74,27.74,0,0,0,.78,6.78c2.46,10.25,10.68,15.79,20.88,15.79a34.65,34.65,0,0,0,22.44-8.57ZM106.67,233.8c1.65-1.12,3.25-2.34,4.85-3.59l-.44,9.64v.78a8.57,8.57,0,0,0,5.15,7.48c-.65,0-1.21.09-1.86.09-7.39,0-12-4.07-12.84-11.24C103.3,236,105,234.92,106.67,233.8Zm20.54,10.77a8.35,8.35,0,0,0,1.17-4.72l-.43-9.68a57.66,57.66,0,0,0,4.88,3.63c1.43.95,2.9,1.9,4.41,2.77l-6.05,5.14A28.17,28.17,0,0,1,127.21,244.57Zm84.45-12.63c.09,0,.13-.13.17-.13v.39C211.79,232.11,211.7,232,211.66,231.94Z"/><path class="cls-1" d="M247.38,213H240.2v42.63h7.18c16.47,0,23.87-6.7,23.87-21.31S263.85,213,247.38,213Zm1.47,34V221.65c11.67.3,13.75,4.41,13.75,12.63S260.52,246.64,248.85,246.94Z"/></svg>