<?xml version="1.0" encoding="utf-8"?>
<!-- Generator: Adobe Illustrator 26.0.3, SVG Export Plug-In . SVG Version: 6.00 Build 0)  -->
<svg version="1.1" id="Ebene_1" xmlns="http://www.w3.org/2000/svg" xmlns:xlink="http://www.w3.org/1999/xlink" x="0px" y="0px"
	 viewBox="0 0 300 300" style="enable-background:new 0 0 300 300;" xml:space="preserve">
<style type="text/css">
	.st0{fill:#1D1D1B;}
	.st1{fill:#FFFFFF;stroke:#000000;stroke-width:7;stroke-miterlimit:10;}
</style>
<path class="st0" d="M296.6,196.8c-7.1-5.4-17.6-8.7-28.9-9.1c-0.7,0-1.4,0-2.1,0c-19.5,0-35.5,10.1-43.2,25.6v-24h-17.6
	c10.4-8.5,19-19,25.3-30.8c6.2-11.7,9.8-24.7,10.6-37.9c-4.6,12.1-10.1,23.6-17.8,33.3c-7.4,9.7-16.4,18.1-26.6,24.9
	c-6.3,4.1-13,7.8-19.9,10.8l-2.8,1.2v-1.6h-9.1l59-54.7l-77.2,54.7h-1.1c1.4-3.1,3.1-6.1,4.9-9c6.3-10.2,14.2-19.3,23.3-27.1
	c4.8-3.6,9.6-7.5,14.9-10.5c2.7-1.5,5.1-3.5,8-4.7l8.4-4.1c2.8-1.4,5.7-2.7,8.7-3.7c3-1.2,5.9-2.3,8.9-3.5c6-2,12.2-3.7,18.4-5.9
	c-6.4,0.2-12.9,0.5-19.5,1.2c-3.2,0.5-6.4,1.1-9.6,1.7c-3.3,0.5-6.5,1.2-9.7,2.2c-13,3.6-25.3,9.2-36.6,16.5
	c-0.8,0.6-1.6,1.1-2.4,1.7c7-28.5,3.3-58.6-10.4-84.5c-8.2-15.5-19.1-29.4-32-41.2c9.9,14.2,18.5,29,24.2,44.7
	c3,7.7,5.1,15.7,6.5,23.9c1.4,8,1.9,16.2,1.6,24.3c-0.8,16.2-4.7,32.1-11.6,46.8c-3.4,7.4-7.3,14.5-11.8,21.2
	c-0.9,1.3-1.8,2.6-2.7,4l-6.2-136.4l-6.1,136.2c-1-1.3-1.9-2.6-2.7-4c-4.5-6.7-8.4-13.8-11.8-21.1c-6.9-14.7-10.8-30.6-11.6-46.8
	c-0.4-8.1,0.2-16.3,1.6-24.3c1.3-8.2,3.5-16.2,6.4-23.9c5.7-15.7,14.4-30.5,24.2-44.7c-12.9,11.8-23.8,25.7-32.1,41.2
	c-8.4,16-13.1,33.7-13.8,51.8c-0.4,11.1,0.8,22.1,3.5,32.9c-0.8-0.6-1.7-1.3-2.5-1.8c-11.2-7.4-23.6-13-36.5-16.6
	c-3.2-0.9-6.4-1.7-9.7-2.2c-3.2-0.6-6.4-1.2-9.7-1.7c-6.5-0.6-13-1-19.5-1.2c6.2,2.1,12.4,3.9,18.4,5.8c3,1.3,5.9,2.4,8.9,3.5
	c3,1,5.9,2.3,8.7,3.7l8.4,4.1c2.9,1.2,5.3,3.2,8,4.7c5.4,3.1,10.1,6.9,15,10.6c9.1,7.8,16.9,16.9,23.2,27.1c1.8,2.9,3.5,6,4.9,9.1
	h-1.2l-77.2-54.7l59,54.7H63.6c-6.7-3-13.1-6.5-19.2-10.5c-10.2-6.7-19.2-15.1-26.6-24.9c-7.7-9.7-13.2-21.2-17.8-33.3
	c0.9,13.2,4.5,26.1,10.6,37.9c6.4,12,15.2,22.6,25.8,31.1c2.2,1.8,4.4,3.6,6.7,5.2l-1.2,0.4c-2.2,1.2-4.3,2.4-6.4,3.6l-3.1,1.9
	l-2.8,2.3c-1.9,1.5-3.7,3-5.5,4.6c-3.3,3.4-6.4,6.9-9.3,10.6c4.2-2.2,8.1-4.6,12.1-6.7c2.1-0.9,4.1-1.8,6.1-2.7l3-1.4l3.2-0.9l6.1-2
	l6.2-1c1.6-0.3,3.3-0.5,5-0.4c1.2,0.6,2.3,1.2,3.5,1.8v10.4l-30.2,3l30.2,2.9v0.4h3.7l19.9,1.9v4.6c-6.3,2.8-13,4.6-19.9,5.2
	c-1,0-2,0.3-3.1,0.2l-3-0.1c-2.1,0-4.1-0.1-6.2-0.4l-6.2-1l-6.1-2l-3.2-0.9l-3-1.4c-2-0.9-4-1.9-6.1-2.7c-4-2-7.9-4.5-12.1-6.7
	c2.9,3.7,6,7.3,9.3,10.7c1.7,1.6,3.6,3.1,5.5,4.6l2.8,2.3l3.1,1.9c8.1,5.4,18.2,8.4,28.3,9.2c6.7,0.4,13.4-0.2,19.9-2v35.1h37.2
	v-30.7c4.7-0.3,8.3-4.3,8.1-9l-0.4-9.7c1.6,1.3,3.2,2.5,4.9,3.6c0.9,0.6,1.9,1.3,2.8,1.9v44.1h37.2v-30.4h11.6v30.3h37.2v-23.8
	c7.4,14.9,22.6,24.7,41.5,25.4c0.6,0,1.2,0,1.8,0c12.1,0,23.4-3.4,31.1-9.1l3.4-2.6v-70.6L296.6,196.8z M291.3,265.7
	c-6.1,4.6-15.8,7.3-25.8,7.3c-0.5,0-1,0-1.5,0c-20.5-0.7-38-15.1-38-38.3c0-23.7,18.3-38.3,39.5-38.3c0.6,0,1.2,0,1.8,0
	c9.4,0.3,18.2,3,24,7.3v16.9c-6-5.2-13.5-8.2-21.4-8.6h-1.1c-12.3,0-21.8,7.9-21.8,22.6c0,14.2,9,22.2,20.8,22.6h0.9
	c8.3-0.1,16.3-3.1,22.5-8.6L291.3,265.7z M164.8,246.5v24.8H145v-73.1l0.1-0.1l0.3-0.2h19.4v26.3h29V198h19.8v73.4h-19.8v-30.3h-29
	L164.8,246.5z M92.4,242.1v-29.2H68.7V198h67v12.5l0,0l0,0v2.4H128c0-0.1-0.1-0.2-0.2-0.2v0.2h-0.6c0,0,0-0.1-0.1-0.1l-0.1,0.1
	h-13.4l-0.1-0.1c0,0-0.1,0.1-0.1,0.1h-0.6v-0.2c-0.1,0-0.2,0.1-0.2,0.2h-0.5v9.7l-0.1-0.1c0,0.1,0,0.2,0.1,0.2c0,0,0,0,0,0v5
	l-0.1,2.9c0,0,0.1,0,0.1-0.1v40.9H92.4L92.4,242.1z M184,203.3c0.3,0,0.7,0,1,0v12.3h-2.7l-8.8-0.8v-6.4
	C177.1,206.8,180.6,205.1,184,203.3z M285.6,242.2c-4.7,4.1-10.6,6.4-16.9,6.5h-0.7c-8-0.3-12.4-5.2-12.4-13.9
	c0-12.1,8.2-13.9,13.1-13.9h0.8c5.9,0.3,11.6,2.6,16.1,6.5l8.7,7.4L285.6,242.2z"/>
<rect x="180.5" y="68.2" class="st1" width="100" height="14"/>
</svg>
