<svg id="Ebene_1" data-name="Ebene 1" xmlns="http://www.w3.org/2000/svg" viewBox="0 0 100 100"><defs><style>.cls-1{fill:#1d1d1b;}</style></defs><path class="cls-1" d="M50,0h0Z"/><path class="cls-1" d="M94,32.85a34,34,0,0,0-10.57-16.5A62,62,0,0,0,67.56,6.11,102,102,0,0,0,50,0h0s0,0,0,0a93.52,93.52,0,0,1,.63,19.74,42.93,42.93,0,0,1-.66,4.8,37.35,37.35,0,0,1-2.1,7.23,28.7,28.7,0,0,1-3.13,5.74,26.55,26.55,0,0,1-14.9,9.92,44.25,44.25,0,0,1-9.21,1.48c-1.6.09-3.23.09-4.85,0,1.86-2.59,3.69-5.18,5.52-7.78,2.8-3.93,5.6-7.86,8.32-11.84,5.53-7.93,11-15.89,16.29-24C39.56,12.63,33.32,20,27.14,27.43,24,31.11,21,34.87,17.93,38.6c-2,2.52-4.12,5-6.16,7.54a22.07,22.07,0,0,1-.86-3.83,24.08,24.08,0,0,1,.38-8.16c1.17-5.41,4.37-10.35,8.4-14.57a69,69,0,0,1,14.11-11A177.54,177.54,0,0,1,50,0h0s0,0,0,0h0a101.72,101.72,0,0,0-17.53,6.1A62,62,0,0,0,16.53,16.35,34.15,34.15,0,0,0,6,32.85,28.14,28.14,0,0,0,6.33,48c.25.83.54,1.63.85,2.44a20.65,20.65,0,0,0,1.06,2.19L7.78,73.89,7.47,96.37l0,3.34,3.45.06c6.51.11,13,.08,19.57.14L50,100l19.57-.09c6.53-.06,13,0,19.57-.13l3.45-.06,0-3.35-.32-22.48c0-3.76-.15-7.5-.23-11.24l-.22-10a21,21,0,0,0,1-2.18c.33-.81.62-1.61.87-2.44a26.75,26.75,0,0,0,1-5A27.8,27.8,0,0,0,94,32.85ZM66.21,8.62a69.3,69.3,0,0,1,14.11,11c4,4.22,7.22,9.16,8.38,14.57a23.34,23.34,0,0,1,.38,8.16,20.32,20.32,0,0,1-.84,3.83c-2-2.52-4.1-5-6.16-7.54C79,34.86,76,31.11,72.86,27.43c-6.17-7.41-12.41-14.8-18.78-22,5.29,8.08,10.75,16,16.26,24,2.74,4,5.54,7.91,8.33,11.86Q81.4,45.07,84.18,49c-1.61.07-3.25.07-4.83,0a44.44,44.44,0,0,1-9.23-1.48,26.54,26.54,0,0,1-14.88-9.92,28.47,28.47,0,0,1-3.15-5.77c.15-.53.28-1.05.39-1.58a45.18,45.18,0,0,0,1-10.32A72.63,72.63,0,0,0,50.05,0,177.54,177.54,0,0,1,66.21,8.62Zm20.07,54c-.08,3.74-.2,7.48-.23,11.24l-.28,19c-5.41-.06-10.79-.06-16.2-.09L50,92.75l-19.56.08c-1.21,0-2.41,0-3.62,0h0L25.69,65.76l16.92-.71.72,17,.74-17.77,0-.71-.77,0-19.26-.81-1.49-.06-.06,1.62-1.2,28.6h0c-2.36,0-4.73,0-7.09.06l-.26-19-.42-19.31a53.21,53.21,0,0,0,7.47,0,45.23,45.23,0,0,0,10.43-1.89,34.27,34.27,0,0,0,9.66-4.77A27.13,27.13,0,0,0,48.51,40c.54-.88,1-1.78,1.49-2.71A28.65,28.65,0,0,0,51.5,40a27.09,27.09,0,0,0,7.4,7.91,34.32,34.32,0,0,0,9.67,4.77A45,45,0,0,0,79,54.6a53.07,53.07,0,0,0,7.46,0Z"/></svg>