<svg id="Ebene_1" data-name="Ebene 1" xmlns="http://www.w3.org/2000/svg" viewBox="0 0 100 100"><defs><style>.cls-1{fill:#1d1d1b;}</style></defs><g id="Geruch"><path class="cls-1" d="M39.6,0c-.85,2.54-1.77,5-2.71,7.54S35,12.5,34,15l.16-.72.49,7.12-.78-1.64c6.43,4.65,12.66,9.5,18.65,14.72,3,2.61,5.94,5.29,8.78,8.14a61.81,61.81,0,0,1,8.08,9.48,12.7,12.7,0,0,1,1.67,3.61l.14.7a7.55,7.55,0,0,1,0,.83l0,.94c0,.6-.13,1.19-.22,1.76a29.24,29.24,0,0,1-1.85,6.29,33.34,33.34,0,0,1-6.92,10.85A13.83,13.83,0,0,1,56,80.83a9,9,0,0,1-2.09.23,9.36,9.36,0,0,0-1.19,0,12.81,12.81,0,0,0-2.44.44,27.54,27.54,0,0,0-9.5,5.28l.44-1.06a14.85,14.85,0,0,0,.37,3.64,26.4,26.4,0,0,0,1.14,3.71,26.87,26.87,0,0,0,1.78,3.56A34.61,34.61,0,0,0,46.81,100a27.52,27.52,0,0,1-3-2.81,25.12,25.12,0,0,1-2.54-3.32,21.49,21.49,0,0,1-1.92-3.8,16.55,16.55,0,0,1-1.1-4.33,1.19,1.19,0,0,1,.28-.88l.16-.17a30.55,30.55,0,0,1,4.61-4.21,25.3,25.3,0,0,1,5.56-3.21,16.07,16.07,0,0,1,3.3-.92,15,15,0,0,1,1.75-.18,4.57,4.57,0,0,0,.82-.19,9,9,0,0,0,3.48-2.72A30.42,30.42,0,0,0,63.34,64a27.21,27.21,0,0,0,1.3-5.05c0-.4.09-.8.11-1.17v-.54a.17.17,0,0,0,0,.1s0,0,0,0a8.38,8.38,0,0,0-.91-1.66,38.32,38.32,0,0,0-3.34-4.23C59.25,50,58,48.6,56.6,47.23c-2.69-2.75-5.47-5.46-8.29-8.15C42.67,33.72,37,28.34,31.2,23L31,22.84a1.83,1.83,0,0,1-.57-1.46l.49-7.12V14a1.14,1.14,0,0,1,.16-.48c1.39-2.27,2.74-4.56,4.16-6.81S38.09,2.21,39.6,0Z"/><path class="cls-1" d="M50.06,73.33a17.38,17.38,0,0,0-5.59-4A9.1,9.1,0,0,0,38.64,69c-.48.18-1,.25-1.45.47s-.95.4-1.44.62a27.66,27.66,0,0,0-2.85,1.56c-.39.23-.74.63-.71.49a.32.32,0,0,0,0-.14.61.61,0,0,0,0-.27.86.86,0,0,0-.23-.47c-.16-.14-.1,0,0,.07A11.39,11.39,0,0,0,35,72.2h-.2a6.94,6.94,0,0,0,1.09-.13A5.91,5.91,0,0,0,37,71.75a7.1,7.1,0,0,0,2.21-1.27,5.59,5.59,0,0,1-1.48,2.38,8.55,8.55,0,0,1-1.16.9,5.45,5.45,0,0,1-1.39.68l-.21,0a9.82,9.82,0,0,1-4.14-.18,3.17,3.17,0,0,1-1.45-.91,2.5,2.5,0,0,1-.59-1.29,3.37,3.37,0,0,1,0-.71,4.74,4.74,0,0,1,.15-.57,5.51,5.51,0,0,1,1.69-2.14A18.41,18.41,0,0,1,34,66.53c.6-.29,1.24-.55,1.86-.81a14.88,14.88,0,0,1,2-.55,10.2,10.2,0,0,1,8.07,1.76A11.16,11.16,0,0,1,50.06,73.33Z"/></g></svg>