<svg id="Ebene_1" data-name="Ebene 1" xmlns="http://www.w3.org/2000/svg" viewBox="0 0 100 100"><defs><style>.cls-1{fill:#1d1d1b;}</style></defs><g id="Outdoor"><path class="cls-1" d="M96.69,90.43,96.56,82c0-2.83-.06-5.65-.14-8.48l-.43-17,0-.87-.6-.49c-5.32-4.35-10.63-8.68-15.89-12.83L64,30.14l14.7,14.19c4.56,4.45,9.1,8.71,13.61,13l-.41,16.18c-.08,2.83-.1,5.65-.15,8.48l-.08,5.94c-9.22-.14-18.46-.11-27.67-.18-5.41,0-10.81,0-16.21.07l-.71-14.52,10-.49L57.66,83l.53-10.79v-.5l-.54,0L46,71.13l-1,0-.06,1.14-.75,15.59c-2.58,0-5.17,0-7.75.08-.07-4.81-.11-9.61-.24-14.42L36,69.29l-.26-10.8,4.65-.19,46.23-1.79L41.31,54.76l-2.8-.11L42,51.38c2.45-2.31,4.92-4.65,7.38-7.05L64,30.14,48.58,42.33c-2,1.59-4.07,3.23-6.11,4.87a51.72,51.72,0,0,0,0-7.47A47.8,47.8,0,0,0,40.44,28.2c-.52-1.88-1.28-3.67-2-5.48-.39-.89-.82-1.75-1.23-2.63a24.84,24.84,0,0,0-1.33-2.56A67.18,67.18,0,0,0,21.57,0,84.79,84.79,0,0,1,32.93,19c.36.83.69,1.67,1,2.53s.63,1.69.9,2.56c.47,1.73,1,3.46,1.32,5.21a49.3,49.3,0,0,1,1.09,10.6,54.72,54.72,0,0,1-1.76,13l-2.78,2.26-.59.49,0,.87-.16,6.18A64.31,64.31,0,0,1,28,70c-.51.84-1.06,1.67-1.62,2.49L22,12.42,21.53,72.6c-.61-.78-1.2-1.56-1.77-2.37a63.32,63.32,0,0,1-5.48-9.1,54.79,54.79,0,0,1-5.69-20.3A48.08,48.08,0,0,1,9,30.19a51.32,51.32,0,0,1,1-5.3c.22-.87.49-1.74.73-2.61s.51-1.74.82-2.58A85.09,85.09,0,0,1,21.57,0,67.66,67.66,0,0,0,8.41,18.43a24.75,24.75,0,0,0-1.16,2.65c-.35.9-.73,1.79-1,2.7C5.62,25.63,5,27.47,4.59,29.37A49,49,0,0,0,3.28,41,55.13,55.13,0,0,0,8.44,63.9a69.4,69.4,0,0,0,5.82,10.2c1.12,1.62,2.3,3.17,3.57,4.68a51.26,51.26,0,0,0,3.62,4l-.1,13.81a2.44,2.44,0,0,0,0,.27,3.4,3.4,0,1,0,6.79-.5l-1-13.76h0a52.75,52.75,0,0,0,3.35-4.21c.37-.51.73-1,1.1-1.55-.09,4.53-.13,9.07-.22,13.61l0,2.47,2.56,0c10,.17,20.09.13,30.14.22,10-.09,20.1,0,30.15-.21l2.54,0Z"/></g></svg>