<svg id="Ebene_1" data-name="Ebene 1" xmlns="http://www.w3.org/2000/svg" viewBox="0 0 100 100"><defs><style>.cls-1{fill:#1d1d1b;}</style></defs><g id="Inhaltsst."><path class="cls-1" d="M99.08,63.55l0,0L90,49.35a1.39,1.39,0,0,0-.58-.5c.28-1.79.6-3.65.83-5.53A53.94,53.94,0,0,0,90.73,35,38.49,38.49,0,0,0,87,19.19a36.52,36.52,0,0,1-.34,15.39,49.23,49.23,0,0,1-2.38,7.19c-1,2.38-2.06,4.7-3.15,7.27l0,0a6.22,6.22,0,0,0-.27,1,23.78,23.78,0,0,0-.52,2.52L58.08,63.17l-1.4-.25A40.47,40.47,0,0,1,59.6,54.2a46,46,0,0,1,6.28-9.93,55.71,55.71,0,0,1,4.05-4.38c1.45-1.38,3-2.87,4.3-4.42a45.06,45.06,0,0,0,6.88-10.15,44.31,44.31,0,0,1-7.85,9.19c-1.5,1.38-3,2.58-4.66,3.84a50.86,50.86,0,0,0-4.73,4.08A48.27,48.27,0,0,0,56,52.27a44,44,0,0,0-4.48,9.78L37.7,59.67c-.24-5.58.18-11.28,2.16-16.08l.44-.94a2.76,2.76,0,0,1,.15-.3l.24-.4a8.94,8.94,0,0,1,1.19-1.49,25.44,25.44,0,0,1,3.26-2.84,76.16,76.16,0,0,1,7.81-5c1.38-.8,2.77-1.57,4.16-2.35C59.39,29,61.7,27.78,64,26.57c1.9-1,3.81-2,5.71-3.08C72.53,22,75.33,20.4,78,18.65a39.91,39.91,0,0,0,3.9-2.83,11.83,11.83,0,0,0,3.14-3.62,11.46,11.46,0,0,1-3.44,3.21,38.06,38.06,0,0,1-4.12,2.35c-2.83,1.42-5.73,2.68-8.67,3.89-2,.85-4.09,1.67-6.14,2.49a4.44,4.44,0,0,0-1-.65h0C57.35,21.39,53,19.62,48.58,17.9l-13.12-5c-4.34-1.66-8.67-3.34-12.87-5.27A60.19,60.19,0,0,1,15.74,4a21.87,21.87,0,0,1-2.36-1.72A10.36,10.36,0,0,1,11.22,0a11.22,11.22,0,0,0,2,2.88,26,26,0,0,0,2.6,2.42,67.7,67.7,0,0,0,5.74,4.13c4,2.56,8.06,4.89,12.14,7.18l12.2,6.83c2.56,1.45,5.08,2.92,7.54,4.46l-2.38,1a86,86,0,0,0-8.79,4.42,30.35,30.35,0,0,0-4.28,3l-.45.39h0c-1.31-1.13-2.64-2.24-4-3.27l-3.29-2.39c-1.06-.79-2.1-1.62-3.12-2.47A58.26,58.26,0,0,1,16.29,16.79,58.8,58.8,0,0,0,25.2,30.56c.89,1.06,1.81,2.09,2.78,3.1l2.85,2.91c1.27,1.34,2.46,2.74,3.61,4.17l-.07.11a36,36,0,0,0-3.56,9.89,56.31,56.31,0,0,0-1.08,7.57L16.39,56a3.59,3.59,0,0,0-.45-1.4,86.19,86.19,0,0,1-5-10.62,58.77,58.77,0,0,1-3.1-11.26A56.38,56.38,0,0,1,7.07,20.9a69.28,69.28,0,0,1,1.69-12A71.92,71.92,0,0,0,5,20.64,60,60,0,0,0,3.74,33.08,64.81,64.81,0,0,0,5,45.71,82.93,82.93,0,0,0,7.76,55.89h0L.87,70.77l0,0c0,.08,0,.16-.07.26a1,1,0,0,0,.84,1.19l3.44.58.28,14.78v.15a3.74,3.74,0,0,0,3.1,3.6l48.47,8.3h0a2.91,2.91,0,0,0,2.59,0l.13-.07L90.29,85a3.63,3.63,0,0,0,2.07-3.2v-.19L92.66,69a.31.31,0,0,0,0-.19,4.32,4.32,0,0,0-.11-.88L98.68,65l.11-.06A1,1,0,0,0,99.08,63.55ZM50.88,80.48,13.24,72.57,5.39,70.92l-2-.42L9.14,59.17l.75-1.46,5.81,1.22,14,2.93L37,63.41l14.33,3,3.54.74s0,0,0,0l1,.23-.19,10.23v1l-.36,14.8L13,84.54l.19-10.29,37.71,6.46a.12.12,0,0,0,.12-.07l2.54-5.49ZM91.82,66.39,84.5,70.32,68,79.21l-4.6-6.49,4.4,6.86a.17.17,0,0,0,.23.06h0l16.52-7.9.19,7.62L61.14,92.07l-.35-15V77L60.6,66.82,83.54,54.55,88.38,52l.3.41,8.07,11.36Z"/></g></svg>