<svg id="Ebene_1" data-name="Ebene 1" xmlns="http://www.w3.org/2000/svg" viewBox="0 0 100 100"><defs><style>.cls-1{fill:#1d1d1b;}</style></defs><path class="cls-1" d="M64,74.2a3,3,0,0,0,.06-.68v-.11a2.84,2.84,0,0,0-.12-.79c-.28-1.22-1.28-1.87-2.93-1.87H58.29v5.49H61C62.76,76.24,63.77,75.52,64,74.2Z"/><path class="cls-1" d="M61.36,80.55H58.29v6.71h3.07c2.65,0,3.94-1.13,3.94-3.36a3.7,3.7,0,0,0-.25-1.46C64.57,81.19,63.35,80.55,61.36,80.55Zm-.09,3h.09a3.58,3.58,0,0,1,1,.1c0,.06,0,.15,0,.27a1.7,1.7,0,0,1,0,.28,3.7,3.7,0,0,1-.94.11h-.09Z"/><path class="cls-1" d="M99,75.58V68.11l-1.17-.89c-2.46-1.87-6.34-3-10.42-3a16.28,16.28,0,0,0-12.88,5.87l-.36-.35c-.59-.54-1.2-1-1.83-1.54a8.36,8.36,0,0,0-3.75-3.55c.46-.34.91-.7,1.34-1.07a34.68,34.68,0,0,0,8.82-10.67,32.39,32.39,0,0,0,3.63-13A42.39,42.39,0,0,1,76.3,51.38a37.57,37.57,0,0,1-9.12,8.51,45.33,45.33,0,0,1-6.52,3.57H56.3L76.51,44.74,50.11,63.46h-.42a29.11,29.11,0,0,1,1.69-3.1,39.91,39.91,0,0,1,8-9.28,45.32,45.32,0,0,1,5.13-3.6,22.92,22.92,0,0,1,2.74-1.62l2.87-1.42a23.73,23.73,0,0,1,3-1.28c1-.38,2-.77,3-1.2,2.07-.67,4.18-1.27,6.29-2-2.2.07-4.45.19-6.68.4-1.1.18-2.2.4-3.32.61a24.93,24.93,0,0,0-3.3.73,44.33,44.33,0,0,0-12.53,5.68c-.29.2-.58.41-.86.63a40.48,40.48,0,0,0,1.19-11.28A40.94,40.94,0,0,0,52.16,19a52.63,52.63,0,0,0-11-14.1,67.14,67.14,0,0,1,8.3,15.3,39.29,39.29,0,0,1,2.2,8.18,37,37,0,0,1,.55,8.33,42.56,42.56,0,0,1-4,16A53,53,0,0,1,44.22,60c-.3.44-.6.89-.92,1.32L41.2,14.69,39.1,61.36,38.16,60a55.15,55.15,0,0,1-4-7.28,42.86,42.86,0,0,1-4-16,38.23,38.23,0,0,1,.54-8.33,40.14,40.14,0,0,1,2.22-8.18,67.17,67.17,0,0,1,8.3-15.3,52.19,52.19,0,0,0-11,14.1,41.06,41.06,0,0,0-3.56,29c-.27-.21-.55-.4-.83-.6A44,44,0,0,0,13.3,41.71,23.5,23.5,0,0,0,10,41c-1.12-.21-2.22-.43-3.32-.59C4.45,40.14,2.2,40,0,40c2.11.73,4.23,1.34,6.31,2,1,.43,2,.8,3,1.2a22.16,22.16,0,0,1,3,1.27l2.89,1.41a29,29,0,0,1,2.74,1.62,47.64,47.64,0,0,1,5.12,3.62,40.19,40.19,0,0,1,8,9.28,25.33,25.33,0,0,1,1.8,3.37l-.12,0-26.81-19h0L26.48,63.83l2.1,1.93-.25.18-1.91-.62c-1.48-.51-2.94-1.07-4.37-1.71h0a50.49,50.49,0,0,1-6.82-3.72A37.42,37.42,0,0,1,6.1,51.38,42.72,42.72,0,0,1,0,40a32.35,32.35,0,0,0,3.63,13,34.93,34.93,0,0,0,8.81,10.67c.73.62,1.49,1.2,2.27,1.75l-.37.15c-.76.4-1.48.82-2.2,1.25l-1.07.64-1,.79c-.64.53-1.28,1-1.89,1.58A47.19,47.19,0,0,0,5,73.41c1.45-.74,2.76-1.59,4.13-2.3.72-.3,1.41-.63,2.09-.94l1-.46,1.09-.33,2.09-.66,2.15-.35a10.21,10.21,0,0,1,1.74-.14,48.47,48.47,0,0,0,4.73,2.22,14.07,14.07,0,0,0-.92,1.71l-13,1.25L22.3,74.57a16.2,16.2,0,0,0-.58,4,7.3,7.3,0,0,1-.93.08l-1.05,0a13.54,13.54,0,0,1-2.11-.16l-2.14-.35-2.11-.65-1.08-.31-1-.48c-.7-.31-1.39-.64-2.11-.94C7.8,75,6.49,74.16,5,73.41c1,1.22,2,2.49,3.17,3.65.61.53,1.25,1,1.89,1.57l1,.78,1.06.65a20.43,20.43,0,0,0,9.71,3.16h.4c1.8,7,8.08,11.86,16,11.86a18,18,0,0,0,10.31-2.9v2.36H63.07c6.15,0,9.49-2.67,10.92-6a15.32,15.32,0,0,0,12.87,6.56,28.77,28.77,0,0,0,11.32-2.44l1.82-.77V75.58Zm-24.17,8h0A8.91,8.91,0,0,0,74.3,81h0c0-.47-.06-.93-.06-1.4a12.42,12.42,0,0,1,.35-3h0a10.28,10.28,0,0,1,.67-2,10.42,10.42,0,0,1,1-1.77c.09-.13.18-.27.29-.4a13.37,13.37,0,0,1,10.9-5.18c3.29,0,6.64.87,8.62,2.37v5.46a11.64,11.64,0,0,0-7.67-2.77C84,72.28,81,75,81,80c0,4.82,2.84,7.54,6.87,7.54A7.74,7.74,0,0,0,91,86.91V83H87.49V78.56H97V89.91a25.94,25.94,0,0,1-10.16,2.2A12.19,12.19,0,0,1,74.83,83.6Zm-3,.6c0,4.06-2.47,7.38-8.81,7.38H51.51V66.43H62.65a11.62,11.62,0,0,1,2.92.33,6.1,6.1,0,0,1,4.11,2.83A6.64,6.64,0,0,1,70.54,73a2,2,0,0,1,0,.24.44.44,0,0,1,0,.16,1,1,0,0,1,0,.17,6.5,6.5,0,0,1-2.34,4.12h0a3.33,3.33,0,0,1-.32.24,6.75,6.75,0,0,1,2.6,2,6.49,6.49,0,0,1,1,1.74A6.66,6.66,0,0,1,71.88,84ZM47.06,89.6a15.14,15.14,0,0,1-8.84,2.51c-5.93,0-11.2-3.31-12.94-9a14,14,0,0,1-.6-4.13c0-.32,0-.61,0-.91a13.55,13.55,0,0,1,.57-3.25c.15-.49.34-1,.53-1.44a12.71,12.71,0,0,1,.87-1.58l.22-.34a13,13,0,0,1,1.34-1.62,10.27,10.27,0,0,1,.77-.71,11.84,11.84,0,0,1,1.82-1.31A9,9,0,0,1,32.48,67a4.91,4.91,0,0,1,.57-.25c.31-.12.62-.21.93-.3a.26.26,0,0,1,.15,0,8.57,8.57,0,0,1,1.24-.28h0a2.71,2.71,0,0,1,.58-.11,7.56,7.56,0,0,1,1-.12q.65-.06,1.29-.06a4.93,4.93,0,0,1,.67,0,5,5,0,0,1,.67,0,3.86,3.86,0,0,1,.49.06,8.61,8.61,0,0,1,1.15.13c.36,0,.7.12,1,.19l.29.08a7,7,0,0,1,1,.28,11,11,0,0,1,1.33.49.67.67,0,0,1,.15.06,6.15,6.15,0,0,1,.85.43.76.76,0,0,1,.18.09l.06,0a9.2,9.2,0,0,1,1,.63v5.79c-.19-.17-.39-.33-.59-.48s-.27-.21-.42-.3L46,73.35l-.21-.13a12,12,0,0,0-1.49-.85l-.24-.1a.71.71,0,0,0-.25-.11,3.52,3.52,0,0,0-.72-.27,5.75,5.75,0,0,0-.77-.25c-.25-.07-.52-.13-.77-.18a.41.41,0,0,0-.21,0,.19.19,0,0,0-.12,0c-.05,0-.08,0-.12,0a1.33,1.33,0,0,0-.34,0,5.72,5.72,0,0,0-1-.09h-.59a2.43,2.43,0,0,0-.27,0h0a.55.55,0,0,0-.18,0h-.08a8.3,8.3,0,0,0-2.15.46L35.8,72l-.31.16A6.58,6.58,0,0,0,34,73.28a.28.28,0,0,0-.07.09s0,0,0,0a6.09,6.09,0,0,0-.46.55,5.73,5.73,0,0,0-.89,1.59A9.25,9.25,0,0,0,31.89,79a8.61,8.61,0,0,0,.28,2.33,6.93,6.93,0,0,0,7.18,5.42,11.85,11.85,0,0,0,7.71-3ZM36.69,78.83a18.65,18.65,0,0,0,1.68-1.24l-.15,3.32a1.22,1.22,0,0,0,0,.27A2.93,2.93,0,0,0,40,83.75q-.31,0-.63,0a4.07,4.07,0,0,1-4.43-3.84C35.53,79.59,36.11,79.21,36.69,78.83Zm7.08,3.7a2.78,2.78,0,0,0,.4-1.62L44,77.59c.53.43,1.1.85,1.66,1.24s1,.65,1.52,1l-2.08,1.77A9.18,9.18,0,0,1,43.77,82.53Zm47.11-7H86.3a5.79,5.79,0,0,1,2.06-.32A9.25,9.25,0,0,1,90.88,75.58Zm-6.37,1.58v5.6A6.17,6.17,0,0,1,84,80,6.25,6.25,0,0,1,84.51,77.16ZM73.65,71.34l-.22.36c0-.18,0-.34-.06-.52Z"/></svg>